<!--svg xmlns="http://www.w3.org/2000/svg" height="16" viewBox="0 -960 960 960" width="16" >
    <path fill="#fff" d="M480.035-306q5.965 0 9.965-4.025t4-9.975v-186q0-5.95-4.035-9.975-4.035-4.025-10-4.025T470-515.975q-4 4.025-4 9.975v186q0 5.95 4.035 9.975 4.035 4.025 10 4.025ZM480-570q8.5 0 14.25-5.75T500-590q0-8.5-5.75-14.25T480-610q-8.5 0-14.25 5.75T460-590q0 8.5 5.75 14.25T480-570Zm.174 438Q408-132 344.442-159.391q-63.559-27.392-110.575-74.348-47.015-46.957-74.441-110.435Q132-407.652 132-479.826q0-72.174 27.391-135.732 27.392-63.559 74.348-110.574 46.957-47.016 110.435-74.442Q407.652-828 479.826-828q72.174 0 135.732 27.391 63.559 27.392 110.574 74.348 47.016 46.957 74.442 110.435Q828-552.348 828-480.174q0 72.174-27.391 135.732-27.392 63.559-74.348 110.575-46.957 47.015-110.435 74.441Q552.348-132 480.174-132ZM480-160q134 0 227-93t93-227q0-134-93-227t-227-93q-134 0-227 93t-93 227q0 134 93 227t227 93Zm0-320Z"/>
</svg-->
<svg xmlns="http://www.w3.org/2000/svg" height="16" viewBox="0 -960 960 960" width="16">
    <path fill="silver" d="M454.001-298.001h51.998V-528h-51.998v229.999Zm25.788-290.46q11.942 0 20.23-8.077 8.288-8.078 8.288-20.019 0-11.941-8.078-20.23-8.077-8.288-20.018-8.288-11.942 0-20.23 8.078t-8.288 20.019q0 11.941 8.078 20.229 8.077 8.288 20.018 8.288Zm.554 472.46q-75.112 0-141.48-28.42-66.369-28.42-116.182-78.21-49.814-49.791-78.247-116.087t-28.433-141.673q0-75.378 28.42-141.246 28.42-65.869 78.21-115.682 49.791-49.814 116.087-78.247t141.673-28.433q75.378 0 141.246 28.42 65.869 28.42 115.682 78.21 49.814 49.791 78.247 115.853t28.433 141.173q0 75.112-28.42 141.48-28.42 66.369-78.21 116.182-49.791 49.814-115.853 78.247t-141.173 28.433ZM480-168q130 0 221-91t91-221q0-130-91-221t-221-91q-130 0-221 91t-91 221q0 130 91 221t221 91Zm0-312Z"/>
</svg>
